<?xml version="1.0" encoding="utf-8"?>
<!-- Generator: Adobe Illustrator 16.0.4, SVG Export Plug-In . SVG Version: 6.00 Build 0)  -->
<!DOCTYPE svg PUBLIC "-//W3C//DTD SVG 1.1//EN" "http://www.w3.org/Graphics/SVG/1.1/DTD/svg11.dtd">
<svg version="1.1" id="Layer_1" xmlns="http://www.w3.org/2000/svg" xmlns:xlink="http://www.w3.org/1999/xlink" x="0px" y="0px"
	 width="611.302px" height="604.901px" viewBox="0.63 94.915 611.302 604.901" enable-background="new 0.63 94.915 611.302 604.901"
	 xml:space="preserve">
<path d="M541.62,482.598l-0.729-251.838h-0.655L304.954,94.915L71.182,230.76h-0.648l1.12,251.557l1.787,17.351v0.3l-1.793-18.171
	L0.63,522.562l306.551,177.254l304.751-176.99L541.62,482.598z M128.612,511.515L89.425,488.89l0.128-45.062l39.187,22.625
	L128.612,511.515z M128.869,421.423l-39.186-22.626l0.128-45.031l39.187,22.626L128.869,421.423z M129.126,331.33l-39.187-22.626
	l0.128-45.031l39.187,22.625L129.126,331.33z M521.993,488.865l-39.192,22.613l-0.122-45.025l39.18-22.625L521.993,488.865z
	 M521.73,398.803l-39.181,22.626l-0.129-45.062l39.192-22.626L521.73,398.803z M521.351,263.673l0.129,45.031l-39.181,22.626
	l-0.129-45.031L521.351,263.673z M443.327,444.072l-39.193,22.613l-0.122-45.062l39.181-22.625L443.327,444.072z M325.737,511.956
	l-0.123-45.062l39.205-22.639l0.129,45.062L325.737,511.956z M365.082,534.343l0.123,45.024L326,602.018l-0.128-45.037
	L365.082,534.343z M325.486,421.869l-0.129-45.031l39.217-22.644l0.129,45.031L325.486,421.869z M442.947,308.943l0.129,45.031
	L403.883,376.6l-0.128-45.025L442.947,308.943z M246.844,354.194l39.217,22.638l-0.128,45.031l-39.217-22.645L246.844,354.194z
	 M246.587,444.293l39.217,22.638l-0.129,45.025l-39.217-22.639L246.587,444.293z M246.33,534.343l39.223,22.638l-0.128,45.074
	l-39.217-22.65L246.33,534.343z M168.471,308.943l39.187,22.626l-0.128,45.031l-39.187-22.625L168.471,308.943z M168.214,399.035
	l39.187,22.626l-0.129,45.024l-39.192-22.613L168.214,399.035z M207.058,512.28l0.018-0.288l-0.11,44.572l-39.144-22.681
	l-0.024-0.056l0.612-45.073l39.67,22.619v0.337l-0.557,0.569H207.058z M404.459,579.288l-0.19-67.559l39.192-22.626l0.19,67.559
	L404.459,579.288z"/>
</svg>
