<svg xmlns="http://www.w3.org/2000/svg" viewBox="0 0 300 50">
    <g fill="none" fill-rule="evenodd">
        <path d="M0 0h300v50H0z"/>
        <path fill="#ff5a5f" d="M50.42 35.427c-1.814-1.087-3.244-2.573-4.29-4.46-1.045-1.886-1.568-3.966-1.568-6.242 0-2.256.523-4.321 1.568-6.197a11.87 11.87 0 0 1 4.29-4.46c1.815-1.096 3.819-1.645 6.013-1.645 1.558 0 2.906.205 4.044.615 1.138.41 2.29 1.087 3.46 2.03.245.185.41.374.491.57.083.194.124.425.124.691 0 .41-.15.748-.446 1.015-.298.266-.641.4-1.03.4a1.67 1.67 0 0 1-1.077-.4c-.84-.718-1.66-1.235-2.46-1.553-.8-.318-1.835-.477-3.106-.477-1.6 0-3.07.42-4.414 1.261-1.342.84-2.409 1.984-3.198 3.43-.79 1.445-1.184 3.018-1.184 4.72 0 1.722.395 3.3 1.184 4.736.79 1.435 1.856 2.573 3.198 3.413a8.156 8.156 0 0 0 4.414 1.261c1.968 0 3.854-.676 5.658-2.03.349-.245.687-.368 1.015-.368.39 0 .713.138.969.415.256.276.384.64.384 1.091 0 .431-.164.81-.492 1.138-2.214 1.784-4.726 2.676-7.534 2.676-2.194 0-4.198-.543-6.013-1.63zm27.986-14.5a8.27 8.27 0 0 1 3.045 3.075c.748 1.302 1.122 2.752 1.122 4.352v6.858c0 .45-.149.825-.446 1.122-.297.297-.671.446-1.122.446-.451 0-.826-.149-1.123-.446-.297-.297-.446-.671-.446-1.122v-1.138a7.534 7.534 0 0 1-2.614 2.06 7.575 7.575 0 0 1-3.321.738c-1.476 0-2.814-.369-4.014-1.107-1.199-.738-2.142-1.758-2.829-3.06-.687-1.302-1.03-2.752-1.03-4.351 0-1.6.369-3.05 1.107-4.352a8.088 8.088 0 0 1 3.06-3.075c1.302-.749 2.742-1.123 4.32-1.123 1.58 0 3.01.374 4.29 1.123zM76.899 33.35a5.32 5.32 0 0 0 1.953-2.06c.471-.872.707-1.85.707-2.937 0-1.087-.236-2.071-.707-2.953a5.292 5.292 0 0 0-1.953-2.076c-.83-.502-1.758-.753-2.783-.753s-1.953.251-2.783.753a5.404 5.404 0 0 0-1.969 2.076c-.481.882-.722 1.866-.722 2.953 0 1.086.24 2.065.722 2.937a5.434 5.434 0 0 0 1.969 2.06c.83.502 1.758.754 2.783.754s1.953-.252 2.783-.754zm16.914.754c.257.287.385.656.385 1.107 0 .45-.17.82-.508 1.107-.338.287-.774.43-1.307.43h-.553a5.062 5.062 0 0 1-2.753-.784 5.463 5.463 0 0 1-1.952-2.137c-.472-.902-.708-1.917-.708-3.045v-7.596h-1.414c-.431 0-.78-.123-1.046-.369a1.203 1.203 0 0 1-.4-.923c0-.41.133-.738.4-.984.266-.246.615-.369 1.046-.369h1.414v-4.428c0-.451.144-.82.43-1.107.288-.287.657-.43 1.108-.43.45 0 .82.143 1.107.43.287.287.43.656.43 1.107v4.428h2.615c.43 0 .779.123 1.045.37.267.245.4.573.4.983 0 .37-.133.677-.4.923-.266.246-.615.37-1.045.37h-2.614v7.595c0 .82.225 1.507.676 2.06.451.554 1.005.831 1.66.831h1.046c.37 0 .682.144.938.43zm14.608-13.178a8.27 8.27 0 0 1 3.045 3.075c.748 1.302 1.122 2.752 1.122 4.352v6.858c0 .45-.148.825-.446 1.122-.297.297-.671.446-1.122.446-.451 0-.825-.149-1.123-.446-.297-.297-.445-.671-.445-1.122v-1.138a7.534 7.534 0 0 1-2.614 2.06 7.575 7.575 0 0 1-3.322.738c-1.476 0-2.814-.369-4.013-1.107-1.2-.738-2.143-1.758-2.83-3.06-.686-1.302-1.03-2.752-1.03-4.351 0-1.6.37-3.05 1.107-4.352a8.088 8.088 0 0 1 3.06-3.075c1.302-.749 2.743-1.123 4.321-1.123 1.579 0 3.009.374 4.29 1.123zm-1.507 12.424a5.32 5.32 0 0 0 1.953-2.06c.472-.872.708-1.85.708-2.937 0-1.087-.236-2.071-.708-2.953a5.292 5.292 0 0 0-1.953-2.076c-.83-.502-1.758-.753-2.783-.753s-1.953.251-2.783.753a5.404 5.404 0 0 0-1.968 2.076c-.482.882-.723 1.866-.723 2.953 0 1.086.241 2.065.723 2.937a5.434 5.434 0 0 0 1.968 2.06c.83.502 1.758.754 2.783.754s1.953-.252 2.783-.754zm10.426 2.676c-.708-.482-1.256-1.159-1.645-2.03-.39-.871-.585-1.85-.585-2.937V14.269c0-.451.144-.82.43-1.108.288-.287.657-.43 1.108-.43.45 0 .82.143 1.107.43.287.287.43.657.43 1.108V31.06c0 .759.144 1.384.431 1.876.287.492.656.738 1.107.738h.77c.41 0 .742.144.999.43.256.288.384.657.384 1.108 0 .45-.195.82-.584 1.107-.39.287-.892.43-1.507.43h-.062c-.881 0-1.676-.24-2.383-.722zm8.38-.246a7.715 7.715 0 0 1-3.014-3.03c-.717-1.291-1.076-2.757-1.076-4.397 0-1.661.359-3.137 1.076-4.429a7.715 7.715 0 0 1 3.014-3.029c1.292-.728 2.758-1.092 4.398-1.092 1.62 0 3.07.364 4.352 1.092a7.852 7.852 0 0 1 3.013 3.03c.728 1.29 1.092 2.767 1.092 4.428 0 1.64-.359 3.106-1.076 4.397a7.744 7.744 0 0 1-2.999 3.03c-1.281.727-2.742 1.091-4.382 1.091-1.64 0-3.106-.364-4.398-1.091zm7.212-2.415a5.102 5.102 0 0 0 1.937-2.045c.462-.871.692-1.86.692-2.967s-.23-2.102-.692-2.983a5.078 5.078 0 0 0-1.937-2.06c-.83-.493-1.768-.739-2.814-.739s-1.984.246-2.814.738a5.183 5.183 0 0 0-1.953 2.06c-.471.882-.707 1.877-.707 2.984s.236 2.096.707 2.967a5.21 5.21 0 0 0 1.953 2.045c.83.493 1.768.739 2.814.739s1.983-.246 2.814-.739zm20.758-12.47a7.852 7.852 0 0 1 3.014 3.03c.728 1.29 1.092 2.767 1.092 4.428v6.642c0 1.62-.359 3.096-1.076 4.429a7.998 7.998 0 0 1-3.03 3.152c-1.301.769-2.773 1.153-4.413 1.153-1.476 0-2.85-.292-4.12-.876a8.611 8.611 0 0 1-3.199-2.506c-.226-.288-.338-.575-.338-.862 0-.43.215-.8.646-1.107.287-.184.574-.276.86-.276.513 0 .933.215 1.261.645a5.406 5.406 0 0 0 2.092 1.646c.84.379 1.794.569 2.86.569 1.004 0 1.917-.241 2.737-.723.82-.482 1.476-1.19 1.968-2.122.492-.933.738-2.045.738-3.337v-1.507c-.635 1.128-1.476 2.01-2.522 2.645-1.045.636-2.224.953-3.536.953-1.517 0-2.876-.364-4.075-1.091-1.2-.728-2.132-1.738-2.799-3.03-.666-1.291-1-2.757-1-4.397 0-1.661.36-3.137 1.077-4.429a7.715 7.715 0 0 1 3.014-3.029c1.292-.728 2.758-1.092 4.398-1.092 1.62 0 3.07.364 4.351 1.092zm-1.537 12.47a5.102 5.102 0 0 0 1.937-2.045c.462-.871.692-1.86.692-2.967s-.23-2.102-.692-2.983a5.078 5.078 0 0 0-1.937-2.06c-.83-.493-1.769-.739-2.814-.739-1.046 0-1.984.246-2.814.738a5.183 5.183 0 0 0-1.953 2.06c-.472.882-.707 1.877-.707 2.984s.235 2.096.707 2.967a5.21 5.21 0 0 0 1.953 2.045c.83.493 1.768.739 2.814.739 1.045 0 1.983-.246 2.814-.739zm10.022 2.922a1.546 1.546 0 0 1-.462-1.138V14.33c0-.471.154-.856.462-1.153a1.574 1.574 0 0 1 1.138-.446c.471 0 .856.149 1.153.446.297.297.446.682.446 1.153v20.82c0 .451-.149.83-.446 1.138-.297.308-.682.461-1.153.461-.451 0-.83-.153-1.138-.46zm19.22-15.592c1.128.615 2.01 1.512 2.645 2.691.636 1.179.954 2.599.954 4.26v7.565c0 .45-.149.825-.446 1.122-.297.297-.672.446-1.123.446-.45 0-.825-.149-1.122-.446-.297-.297-.446-.671-.446-1.122v-7.566c0-1.66-.446-2.916-1.338-3.767-.892-.85-2.076-1.276-3.552-1.276-.86 0-1.645.174-2.352.523-.708.348-1.261.82-1.661 1.414-.4.595-.6 1.261-.6 2v8.672c0 .45-.143.825-.43 1.122-.287.297-.667.446-1.138.446-.451 0-.825-.149-1.123-.446-.297-.297-.446-.671-.446-1.122V21.496c0-.472.149-.851.446-1.138.298-.287.672-.43 1.123-.43.471 0 .85.143 1.138.43.287.287.43.666.43 1.138v.338a6.836 6.836 0 0 1 2.337-1.522 7.75 7.75 0 0 1 2.891-.539c1.415 0 2.686.308 3.814.923zm22.912-7.535c.287.287.43.667.43 1.138v14.024c0 1.6-.374 3.05-1.122 4.352a8.27 8.27 0 0 1-3.045 3.075c-1.28.748-2.71 1.122-4.29 1.122-1.578 0-3.019-.374-4.32-1.122a8.088 8.088 0 0 1-3.06-3.075c-.739-1.302-1.108-2.753-1.108-4.352 0-1.6.344-3.05 1.03-4.352.687-1.302 1.63-2.322 2.83-3.06 1.2-.738 2.537-1.107 4.013-1.107 1.19 0 2.297.246 3.322.738a7.534 7.534 0 0 1 2.614 2.06V14.3c0-.471.148-.85.446-1.138.297-.287.671-.43 1.122-.43.472 0 .851.143 1.138.43zm-5.488 20.041a5.292 5.292 0 0 0 1.953-2.075c.471-.882.707-1.866.707-2.953 0-1.086-.236-2.065-.707-2.937a5.32 5.32 0 0 0-1.953-2.06c-.83-.502-1.758-.754-2.783-.754s-1.953.252-2.783.754a5.434 5.434 0 0 0-1.969 2.06c-.481.872-.722 1.85-.722 2.937 0 1.087.24 2.071.722 2.953a5.404 5.404 0 0 0 1.969 2.075c.83.503 1.758.754 2.783.754s1.953-.251 2.783-.754zm24.924-12.875c.287.287.43.666.43 1.138V35.18c0 .451-.143.825-.43 1.122-.287.298-.666.446-1.138.446-.45 0-.825-.148-1.122-.446-.297-.297-.446-.671-.446-1.122v-.338a6.836 6.836 0 0 1-2.337 1.522 7.75 7.75 0 0 1-2.891.538c-1.415 0-2.686-.307-3.814-.922-1.127-.616-2.009-1.513-2.644-2.691-.636-1.18-.954-2.6-.954-4.26v-7.565c0-.451.149-.825.446-1.123.297-.297.672-.446 1.123-.446.45 0 .825.15 1.122.446.297.298.446.672.446 1.123v7.565c0 1.66.446 2.917 1.338 3.768.892.85 2.076 1.276 3.552 1.276.861 0 1.645-.174 2.353-.523.707-.349 1.26-.82 1.66-1.415.4-.594.6-1.26.6-1.999v-8.672c0-.472.149-.851.446-1.138.297-.287.671-.43 1.122-.43.472 0 .851.143 1.138.43zm6.612 15.9c-1.23-.431-2.194-.995-2.89-1.692a1.302 1.302 0 0 1-.4-.953c0-.492.205-.892.615-1.2.39-.287.748-.43 1.076-.43.41 0 .8.184 1.169.553.39.43.974.805 1.753 1.123.779.318 1.609.477 2.49.477 1.17 0 2.076-.195 2.722-.585.646-.39.969-.912.969-1.568 0-.636-.318-1.164-.953-1.584-.636-.42-1.712-.774-3.23-1.061-3.936-.759-5.904-2.378-5.904-4.859 0-1.005.297-1.855.892-2.553.594-.697 1.373-1.22 2.337-1.568a8.972 8.972 0 0 1 3.075-.523c1.333 0 2.527.215 3.583.646 1.056.43 1.891 1.025 2.507 1.784.266.328.4.656.4.984 0 .348-.175.666-.523.953-.226.164-.513.246-.862.246-.533 0-1.014-.195-1.445-.584-.513-.472-1.056-.805-1.63-1-.574-.194-1.271-.292-2.091-.292-.943 0-1.717.16-2.322.477-.605.318-.907.764-.907 1.338 0 .41.102.753.307 1.03.205.277.595.533 1.169.769.574.236 1.404.466 2.49.692 2.236.45 3.82 1.076 4.752 1.876.933.8 1.4 1.835 1.4 3.106 0 .943-.257 1.799-.77 2.568-.512.769-1.265 1.373-2.26 1.814-.994.441-2.188.661-3.582.661-1.395 0-2.707-.215-3.937-.645zm21.082-2.122c.256.287.384.656.384 1.107 0 .45-.169.82-.507 1.107-.339.287-.774.43-1.307.43h-.554a5.062 5.062 0 0 1-2.752-.784 5.463 5.463 0 0 1-1.953-2.137c-.472-.902-.708-1.917-.708-3.045v-7.596h-1.414c-.43 0-.78-.123-1.046-.369a1.203 1.203 0 0 1-.4-.923c0-.41.134-.738.4-.984.267-.246.615-.369 1.046-.369h1.414v-4.428c0-.451.144-.82.431-1.107.287-.287.656-.43 1.107-.43.451 0 .82.143 1.107.43.287.287.43.656.43 1.107v4.428h2.615c.43 0 .779.123 1.046.37.266.245.4.573.4.983 0 .37-.134.677-.4.923-.267.246-.616.37-1.046.37h-2.614v7.595c0 .82.225 1.507.676 2.06.451.554 1.005.831 1.661.831h1.046c.369 0 .681.144.938.43zm13.485-13.87c.615.328.923.738.923 1.23 0 .143-.01.246-.031.307-.185.657-.595.985-1.23.985a2.59 2.59 0 0 1-.461-.062c-.82-.143-1.487-.215-2-.215-1.476 0-2.665.338-3.567 1.015-.902.676-1.353 1.589-1.353 2.737v8.98c0 .492-.128.871-.384 1.138-.257.266-.641.4-1.154.4-.492 0-.871-.129-1.138-.385-.266-.256-.4-.64-.4-1.153V21.465c0-.492.134-.871.4-1.138.267-.267.646-.4 1.138-.4 1.025 0 1.538.513 1.538 1.538v.584a6.488 6.488 0 0 1 2.276-1.691 6.904 6.904 0 0 1 2.89-.615c1.087 0 1.938.164 2.553.492zm18.422 1.045c0 .205-.061.451-.184.738l-9.41 21.159c-.247.635-.646.953-1.2.953-.205 0-.451-.061-.738-.184-.615-.267-.923-.667-.923-1.2 0-.246.062-.492.185-.738l3.075-6.92-6.92-13.131a1.308 1.308 0 0 1-.153-.646c0-.266.082-.512.246-.738.164-.225.38-.4.646-.523.184-.082.39-.123.615-.123.574 0 1.004.287 1.291.861l5.628 11.195 4.952-11.164c.266-.595.666-.892 1.199-.892.267 0 .513.051.738.154.636.246.953.646.953 1.2z"/>
        <g fill="#ff5a5f">
            <path d="M7.17 27.124S6.303 35.9 15.514 35.9h22.476v-8.93l-30.818.153zM7.17 14.759s-.868 8.777 8.343 8.777h22.476v-8.93L7.17 14.76z"/>
        </g>
    </g>
</svg>
