<?xml version="1.0" encoding="UTF-8"?>
<svg width="24px" height="25px" viewBox="0 0 24 25" version="1.1" xmlns="http://www.w3.org/2000/svg" xmlns:xlink="http://www.w3.org/1999/xlink">
    <!-- Generator: Sketch 45.2 (43514) - http://www.bohemiancoding.com/sketch -->
    <title>Group</title>
    <desc>Created with Sketch.</desc>
    <defs>
        <rect id="path-1" x="0" y="0" width="24" height="25"></rect>
    </defs>
    <g id="Symbols" stroke="none" stroke-width="1" fill="none" fill-rule="evenodd">
        <g id="Icons/ic-garbage">
            <g id="Group">
                <g id="Rectangle-4">
                    <use fill="#FFFFFF" fill-rule="evenodd" xlink:href="#path-1"></use>
                    <rect stroke="#DCE0E0" stroke-width="1" x="0.5" y="0.5" width="23" height="24"></rect>
                </g>
                <g id="icons" transform="translate(6.000000, 4.000000)" fill-rule="nonzero" fill="#DCE0E0">
                    <path d="M10.6282342,1.37766599 L8.50615411,1.37766599 C8.50615411,0.811666063 8.03082686,0.352264991 7.44513074,0.352264991 L4.26202723,0.352264991 C3.67633111,0.352264991 3.20100386,0.811666063 3.20100386,1.37766599 L1.07892372,1.37766599 C0.493227603,1.37766599 0.0179003487,1.83706706 0.0179003487,2.40306699 L11.6893244,2.40306699 C11.6892576,1.83706706 11.2139304,1.37766599 10.6282342,1.37766599 Z" id="Shape"></path>
                    <path d="M0.0178335799,15.7335058 C0.0178335799,16.299538 0.493194219,16.7589068 1.07885695,16.7589068 L10.6282009,16.7589068 C11.213897,16.7589068 11.6892242,16.2995058 11.6892242,15.7335058 L11.6892242,3.42850026 L0.0178335799,3.42850026 L0.0178335799,15.7335058 Z M1.07889034,4.45393352 L10.6282342,4.45393352 L10.6282342,15.7335058 L1.07889034,15.7335058 L1.07889034,4.45393352 Z" id="Shape"></path>
                    <path d="M2.6704254,5.47933452 C2.37757734,5.47933452 2.13991371,5.70901893 2.13991371,5.99203502 L2.13991371,14.1953721 C2.13991371,14.4773557 2.37757734,14.7080726 2.6704254,14.7080726 C2.96327346,14.7080726 3.20093709,14.4773557 3.20093709,14.1953721 L3.20093709,5.99203502 C3.20097047,5.70905119 2.96327346,5.47933452 2.6704254,5.47933452 Z" id="Shape"></path>
                    <path d="M5.85356229,5.47933452 C5.56071423,5.47933452 5.32305061,5.70901893 5.32305061,5.99203502 L5.32305061,14.1953721 C5.32305061,14.4773557 5.56071423,14.7080726 5.85356229,14.7080726 C6.14534205,14.7080726 6.38407398,14.4773557 6.38407398,14.1953721 L6.38407398,5.99203502 C6.38407398,5.70905119 6.14534205,5.47933452 5.85356229,5.47933452 Z" id="Shape"></path>
                    <path d="M9.0366658,5.47933452 C8.74488604,5.47933452 8.50615411,5.70901893 8.50615411,5.99203502 L8.50615411,14.1953721 C8.50615411,14.4773557 8.74488604,14.7080726 9.0366658,14.7080726 C9.32844556,14.7080726 9.56717749,14.4773557 9.56717749,14.1953721 L9.56717749,5.99203502 C9.56721087,5.70905119 9.32844556,5.47933452 9.0366658,5.47933452 Z" id="Shape"></path>
                </g>
            </g>
        </g>
    </g>
</svg>