<?xml version="1.0" encoding="utf-8"?>
<svg version="1.1" xmlns="http://www.w3.org/2000/svg" xmlns:xlink="http://www.w3.org/1999/xlink" viewBox="6.118 5.665 115.765 116.67" enable-background="new 6.118 5.665 115.765 116.67"
	 xml:space="preserve">
<path fill="#AAAAAA" d="M118.975,105.396L98.646,85.068c5.603-8.161,8.899-18.067,8.896-28.689
	c0.005-13.972-5.691-26.713-14.854-35.86c-9.146-9.161-21.887-14.858-35.86-14.854c-13.972-0.004-26.713,5.692-35.858,14.854
	C11.81,29.665,6.114,42.406,6.118,56.379C6.114,70.354,11.81,83.093,20.972,92.238c9.146,9.162,21.887,14.859,35.858,14.853
	c10.156,0.004,19.654-3.015,27.602-8.175l20.512,20.511c3.875,3.878,10.156,3.878,14.031,0
	C122.852,115.553,122.852,109.271,118.975,105.396z M35.004,78.206c-5.601-5.616-9.036-13.272-9.041-21.827
	c0.005-8.555,3.44-16.21,9.042-21.827c5.617-5.602,13.271-9.037,21.825-9.042c8.557,0.005,16.21,3.44,21.828,9.041
	c5.601,5.618,9.035,13.272,9.04,21.828c-0.005,8.555-3.439,16.211-9.04,21.827c-5.617,5.603-13.271,9.036-21.828,9.04
	C48.276,87.242,40.622,83.809,35.004,78.206z"/>
</svg>
