<?xml version="1.0" encoding="UTF-8"?>
<svg width="40px" height="40px" viewBox="0 0 40 40" version="1.1" xmlns="http://www.w3.org/2000/svg" xmlns:xlink="http://www.w3.org/1999/xlink">
    <!-- Generator: Sketch 45.2 (43514) - http://www.bohemiancoding.com/sketch -->
    <title>down</title>
    <desc>Created with Sketch.</desc>
    <defs>
        <circle id="path-1" cx="20" cy="20" r="20"></circle>
    </defs>
    <g id="Public-site" stroke="none" stroke-width="1" fill="none" fill-rule="evenodd">
        <g id="Product-detail" transform="translate(-188.000000, -733.000000)">
            <g id="Carousel" transform="translate(149.000000, 224.000000)">
                <g id="Thumbs">
                    <g id="down" transform="translate(59.000000, 529.000000) rotate(-180.000000) translate(-59.000000, -529.000000) translate(39.000000, 509.000000)">
                        <g id="Oval">
                            <use fill-opacity="0.5" fill="#FFFFFF" fill-rule="evenodd" xlink:href="#path-1"></use>
                            <circle stroke="#484848" stroke-width="0.714285714" cx="20" cy="20" r="19.6428571"></circle>
                        </g>
                        <g id="Icons/ic-arrow-down" transform="translate(11.000000, 12.000000)">
                            <rect id="bounds" x="0" y="0" width="18" height="18"></rect>
                            <path d="M9.00198017,9.99036249 L3.92757745,4.91595977 C3.38042364,4.36880597 2.47443977,4.363454 1.91894688,4.91894688 C1.3595812,5.47831256 1.36211662,6.3737343 1.91595977,6.92757745 L7.95678703,12.9684047 C8.22508451,13.2367022 8.57966062,13.3747266 8.9368849,13.3802326 C9.33516003,13.4106785 9.74276185,13.2728162 10.0471733,12.9684047 L16.0880006,6.92757745 C16.6351544,6.38042364 16.6405063,5.47443977 16.0850135,4.91894688 C15.5256478,4.3595812 14.630226,4.36211662 14.0763829,4.91595977 L9.00198017,9.99036249 Z" id="Combined-Shape" fill="#484848" fill-rule="evenodd"></path>
                        </g>
                    </g>
                </g>
            </g>
        </g>
    </g>
</svg>