<?xml version="1.0" encoding="UTF-8"?>
<svg viewBox="0 0 14 9" version="1.1" xmlns="http://www.w3.org/2000/svg" xmlns:xlink="http://www.w3.org/1999/xlink">
    <!-- Generator: Sketch 44.1 (41455) - http://www.bohemiancoding.com/sketch -->
    <title>Icons/ic-flags/united-kingdom</title>
    <desc>Created with Sketch.</desc>
    <defs></defs>
    <g id="Symbols" stroke="none" stroke-width="1" fill="none" fill-rule="evenodd">
        <g id="Icons/ic-flags/united-kingdom" fill-rule="nonzero">
            <g>
                <path d="M13.7317895,8.99263393 L0.240920078,8.99263393 C0.107879142,8.99263393 0,8.88675 0,8.75616964 L0,0.243857143 C0,0.113276786 0.107879142,0.00739285714 0.240920078,0.00739285714 L13.7318168,0.00739285714 C13.8648577,0.00739285714 13.9727368,0.113276786 13.9727368,0.243857143 L13.9727368,8.75616964 C13.9727096,8.88675 13.8648304,8.99263393 13.7317895,8.99263393 Z" id="Shape" fill="#41479B"></path>
                <path d="M13.9727096,0.243857143 C13.9727096,0.113276786 13.8648304,0.00739285714 13.7317895,0.00739285714 L12.6539532,0.00739285714 L8.19087329,2.87740179 L8.19087329,0.00739285714 L5.78178168,0.00739285714 L5.78178168,2.87740179 L1.31872904,0.00739285714 L0.240920078,0.00739285714 C0.107879142,0.00739285714 0,0.113276786 0,0.243857143 L0,0.855401786 L3.82909552,3.31773214 L0,3.31773214 L0,5.68226786 L3.82909552,5.68226786 L0,8.144625 L0,8.75616964 C0,8.88675 0.107879142,8.99263393 0.240920078,8.99263393 L1.31875634,8.99263393 L5.78183626,6.122625 L5.78183626,8.99263393 L8.19092788,8.99263393 L8.19092788,6.122625 L12.6540078,8.99263393 L13.7318441,8.99263393 C13.864885,8.99263393 13.9727641,8.88675 13.9727641,8.75616964 L13.9727641,8.144625 L10.1436686,5.68229464 L13.9727096,5.68229464 L13.9727096,3.31775893 L10.143614,3.31775893 L13.9727096,0.855401786 L13.9727096,0.243857143 Z" id="Shape" fill="#F5F5F5"></path>
                <g id="Group" fill="#FF4B55">
                    <polygon id="Shape" points="13.9727096 3.79066071 7.70908772 3.79066071 7.70908772 0.00739285714 6.26362183 0.00739285714 6.26362183 3.79066071 0 3.79066071 0 5.20936607 6.26362183 5.20936607 6.26362183 8.99263393 7.70908772 8.99263393 7.70908772 5.20936607 13.9727096 5.20936607"></polygon>
                    <path d="M4.88357115,5.68226786 L0.00682261209,8.78933036 C0.0238791423,8.90351786 0.119805068,8.99263393 0.240892788,8.99263393 L0.572717349,8.99263393 L5.76854581,5.68229464 L4.88357115,5.68229464 L4.88357115,5.68226786 Z" id="Shape"></path>
                    <path d="M9.45308382,5.68226786 L8.56810916,5.68226786 L13.7563782,8.98773214 C13.8773021,8.97508929 13.9727368,8.87817857 13.9727368,8.75614286 L13.9727368,8.56173214 L9.45308382,5.68226786 Z" id="Shape"></path>
                    <path d="M0,0.504883929 L4.41502144,3.31775893 L5.2999961,3.31775893 L0.140354776,0.0304553571 C0.0579376218,0.0680357143 0,0.148794643 0,0.243857143 L0,0.504883929 Z" id="Shape"></path>
                    <path d="M9.07587524,3.31775893 L13.9643314,0.203196429 C13.9440273,0.0927857143 13.8501481,0.00741964286 13.7317895,0.00741964286 L13.3866472,0.00741964286 L8.19090058,3.31775893 L9.07587524,3.31775893 Z" id="Shape"></path>
                </g>
            </g>
        </g>
    </g>
</svg>